:SAMPLES-PER-SECOND 30
:FULLY-SPECIFIED
:DEGREES
288
root  1.01963 39.9067 12.9395 -172.596 -4.54448 -179.398
RightUpLeg  -12.7613 -4.63601 -5.69923
RightLeg  10.1967 3.35594 -1.10443
RightFoot  -2.59443 -0.491965 6.19454
RightToes  -1.33073e-015 0 -3.6325e-017
Spine  13.5574 0.309736 6.57494
Spine1  10.7655 0.698489 0.967151
HEad  6.32804 -9.70245 3.47245
LeftShoulder1  7.08272 -16.1944 -29.8974
LeftArm  35.2329 -22.3039 -64.3754
LeftForeArm  -9.69891 -18.6292 -8.30347
LeftHand  -0.246645 0.021 5.37786
RightShoulder  8.80322 16.8156 37.2685
RightArm  15.9228 22.3903 46.5773
RightForeArm  -16.6871 30.0144 7.39187
RightHand  -0.24729 -0.0210522 -5.37781
LeftUpLeg  -12.7787 12.2701 12.2162
LeftLeg  5.83735 -0.372875 -2.54955
LeftFoot  1.72564 1.00771 -8.8755
LeftToes  5.09284e-011 3.02203e-011 3.83118e-011
289
root  1.13858 39.9005 12.9624 -172.668 -4.75072 -179.364
RightUpLeg  -12.8904 -4.36535 -5.5303
RightLeg  10.6103 2.89592 -1.09679
RightFoot  -2.73177 -0.475925 6.06828
RightToes  -1.33073e-015 0 -3.6325e-017
Spine  13.7551 0.191511 6.62493
Spine1  10.6808 0.587149 0.975881
HEad  6.48186 -9.69482 3.66539
LeftShoulder1  7.0939 -16.2056 -29.9341
LeftArm  27.3829 -25.1255 -65.0603
LeftForeArm  4.16627 -12.8629 -11.4829
LeftHand  -0.246645 0.021 5.37786
RightShoulder  8.87268 16.8989 37.4259
RightArm  16.485 23.4952 46.1713
RightForeArm  -15.9627 29.057 7.1128
RightHand  -0.24729 -0.0210522 -5.37781
LeftUpLeg  -12.9727 12.446 12.3332
LeftLeg  6.26828 -0.316965 -2.40518
LeftFoot  1.17587 0.900666 -8.27317
LeftToes  5.09284e-011 3.02203e-011 3.83118e-011
290
root  1.17705 39.8727 12.9779 -172.81 -4.76555 -179.265
RightUpLeg  -13.0252 -4.18497 -5.40677
RightLeg  11.1329 2.707 -1.05491
RightFoot  -2.97126 -0.456184 5.95127
RightToes  -1.33073e-015 0 -3.6325e-017
Spine  13.965 0.12081 6.67049
Spine1  10.682 0.481083 1.14298
HEad  6.50963 -9.66535 3.7894
LeftShoulder1  7.05441 -16.2313 -29.6824
LeftArm  19.14 -27.2739 -65.6936
LeftForeArm  14.4337 -7.43137 -13.1469
LeftHand  -0.246645 0.021 5.37786
RightShoulder  8.96565 17.0088 37.6373
RightArm  16.8273 24.2958 45.6696
RightForeArm  -15.7873 28.1872 6.88694
RightHand  -0.24729 -0.0210522 -5.37781
LeftUpLeg  -13.0548 12.6721 12.4786
LeftLeg  6.61445 -0.213473 -2.25602
LeftFoot  1.49898 0.9423 -8.44039
LeftToes  5.09284e-011 3.02203e-011 3.83118e-011
291
root  1.14061 39.8341 12.9788 -172.878 -4.41884 -179.091
RightUpLeg  -13.2663 -3.88985 -5.30656
RightLeg  11.598 2.76686 -1.00633
RightFoot  -3.13352 -0.445486 5.9052
RightToes  -1.33073e-015 0 -3.6325e-017
Spine  14.0795 0.148519 6.7771
Spine1  10.732 0.496102 1.26226
HEad  6.44177 -9.62328 3.70427
LeftShoulder1  7.0155 -16.2666 -29.4162
LeftArm  15.2115 -27.8497 -66.1146
LeftForeArm  18.0235 -4.98503 -13.208
LeftHand  -0.246645 0.021 5.37786
RightShoulder  9.07891 17.0972 37.9858
RightArm  16.37 24.7084 45.1969
RightForeArm  -16.2387 27.3037 6.69113
RightHand  -0.24729 -0.0210522 -5.37781
LeftUpLeg  -13.0751 12.9369 12.6617
LeftLeg  6.8842 -0.00171873 -2.13926
LeftFoot  2.15472 1.08601 -9.27573
LeftToes  5.09284e-011 3.02203e-011 3.83118e-011
292
root  1.04688 39.8098 12.9601 -172.784 -3.57809 -178.987
RightUpLeg  -13.6169 -3.2888 -5.35445
RightLeg  11.8148 3.01966 -0.990429
RightFoot  -3.12853 -0.450063 5.96541
RightToes  -1.33073e-015 0 -3.6325e-017
Spine  14.0051 0.331159 6.76099
Spine1  10.8765 0.709488 1.19603
HEad  6.43395 -9.50839 3.4928
LeftShoulder1  7.05896 -16.286 -29.6044
LeftArm  13.7455 -27.1521 -65.7922
LeftForeArm  17.7461 -5.02326 -12.9165
LeftHand  -0.246645 0.021 5.37786
RightShoulder  9.19348 17.1416 38.4286
RightArm  15.2191 24.6877 44.8412
RightForeArm  -17.366 26.2368 6.48566
RightHand  -0.24729 -0.0210522 -5.37781
LeftUpLeg  -13.0216 13.2041 12.7504
LeftLeg  7.15903 0.574611 -2.104
LeftFoot  2.30942 1.1844 -9.99681
LeftToes  5.09284e-011 3.02203e-011 3.83118e-011
293
root  0.921127 39.8094 12.9273 -172.633 -2.48656 -179.055
RightUpLeg  -13.9173 -2.56958 -5.61035
RightLeg  11.7697 3.37497 -1.02327
RightFoot  -3.0189 -0.462793 6.07149
RightToes  -1.33073e-015 0 -3.6325e-017
Spine  13.8152 0.606062 6.43747
Spine1  11.162 0.988544 1.1198
HEad  6.5312 -9.24887 3.36295
LeftShoulder1  7.16182 -16.2832 -30.1386
LeftArm  12.9274 -26.0149 -64.8996
LeftForeArm  14.7259 -6.03948 -12.6382
LeftHand  -0.246645 0.021 5.37786
RightShoulder  9.27875 17.1616 38.7832
RightArm  13.8988 24.2224 44.7559
RightForeArm  -20.1014 25.0884 6.33378
RightHand  -0.24729 -0.0210522 -5.37781
LeftUpLeg  -12.8017 13.4232 12.6784
LeftLeg  7.32449 1.41253 -2.20353
LeftFoot  2.00996 1.18135 -10.178
LeftToes  5.09284e-011 3.02203e-011 3.83118e-011
294
root  0.779123 39.8217 12.8936 -172.544 -1.57686 -179.211
RightUpLeg  -14.0251 -2.15736 -5.94875
RightLeg  11.5315 3.82577 -1.08608
RightFoot  -2.85488 -0.480906 6.21224
RightToes  -1.33073e-015 0 -3.6325e-017
Spine  13.6719 0.828016 5.97198
Spine1  11.4605 1.16236 1.16848
HEad  6.7012 -8.93464 3.32437
LeftShoulder1  7.21116 -16.2586 -30.438
LeftArm  12.2448 -25.2544 -64.3165
LeftForeArm  10.7099 -6.68139 -12.5553
LeftHand  -0.246645 0.021 5.37786
RightShoulder  9.3359 17.1843 39.0004
RightArm  12.4764 23.3912 44.9606
RightForeArm  -24.5209 24.18 6.31189
RightHand  -0.24729 -0.0210522 -5.37781
LeftUpLeg  -12.4871 13.5235 12.5019
LeftLeg  7.31417 2.1537 -2.3803
LeftFoot  1.79665 1.15063 -10.0685
LeftToes  5.09284e-011 3.02203e-011 3.83118e-011
295
root  0.622733 39.8356 12.8686 -172.499 -1.13007 -179.349
RightUpLeg  -13.9327 -2.26942 -6.26156
RightLeg  11.1325 4.35796 -1.14802
RightFoot  -2.65008 -0.507544 6.43335
RightToes  -1.33073e-015 0 -3.6325e-017
Spine  13.6174 0.875266 5.64873
Spine1  11.5949 1.14814 1.27242
HEad  6.96167 -8.66971 3.18125
LeftShoulder1  7.17205 -16.2237 -30.3029
LeftArm  11.462 -25.4595 -64.5252
LeftForeArm  9.61608 -5.84602 -12.7596
LeftHand  -0.246645 0.021 5.37786
RightShoulder  9.40008 17.2135 39.2355
RightArm  10.8622 22.5223 45.189
RightForeArm  -27.6592 23.8294 6.37195
RightHand  -0.24729 -0.0210522 -5.37781
LeftUpLeg  -12.3324 13.4715 12.2295
LeftLeg  7.31567 2.57387 -2.48292
LeftFoot  1.75505 1.13353 -9.95034
LeftToes  5.09284e-011 3.02203e-011 3.83118e-011
296
root  0.459379 39.8482 12.8529 -172.465 -1.19174 -179.478
RightUpLeg  -13.6901 -2.77784 -6.57915
RightLeg  10.6494 4.81488 -1.19175
RightFoot  -2.46526 -0.537964 6.70637
RightToes  -1.33073e-015 0 -3.6325e-017
Spine  13.5571 0.718635 5.42455
Spine1  11.6034 0.893824 1.46758
HEad  7.27244 -8.36007 2.85756
LeftShoulder1  7.14571 -16.2326 -30.1507
LeftArm  10.5948 -26.8016 -65.1833
LeftForeArm  12.9838 -3.2282 -13.006
LeftHand  -0.246645 0.021 5.37786
RightShoulder  9.48381 17.2368 39.572
RightArm  9.71436 22.1557 45.2861
RightForeArm  -26.2186 24.0413 6.34874
RightHand  -0.24729 -0.0210522 -5.37781
LeftUpLeg  -12.4415 13.3142 11.8314
LeftLeg  7.48101 2.64582 -2.47089
LeftFoot  1.62876 1.10493 -9.79052
LeftToes  5.09284e-011 3.02203e-011 3.83118e-011
297
root  0.312038 39.8609 12.8445 -172.491 -1.61844 -179.599
RightUpLeg  -13.3122 -3.41817 -6.88703
RightLeg  10.1767 5.04392 -1.2323
RightFoot  -2.33335 -0.563533 6.94287
RightToes  -1.33073e-015 0 -3.6325e-017
Spine  13.4555 0.467463 5.07158
Spine1  11.6641 0.432556 1.96021
HEad  7.46936 -7.92185 2.51739
LeftShoulder1  7.21324 -16.3287 -30.3167
LeftArm  10.1167 -28.9559 -65.925
LeftForeArm  17.9868 0.384942 -12.8132
LeftHand  -0.246645 0.021 5.37786
RightShoulder  9.56089 17.2533 39.8908
RightArm  9.39042 22.562 45.5377
RightForeArm  -20.6575 24.278 6.16678
RightHand  -0.24729 -0.0210522 -5.37781
LeftUpLeg  -12.6155 13.1553 11.4262
LeftLeg  7.6676 2.4118 -2.47275
LeftFoot  1.44312 1.06169 -9.54001
LeftToes  5.09284e-011 3.02203e-011 3.83118e-011
298
root  0.198005 39.8733 12.8421 -172.607 -2.17078 -179.664
RightUpLeg  -12.8419 -3.95339 -7.10484
RightLeg  9.75654 5.03399 -1.29676
RightFoot  -2.21619 -0.584515 7.1254
RightToes  -1.33073e-015 0 -3.6325e-017
Spine  13.4138 0.31012 4.57328
Spine1  11.7782 -0.0351585 2.77647
HEad  7.48821 -7.55175 2.31136
LeftShoulder1  7.31776 -16.466 -30.5924
LeftArm  9.7184 -31.4053 -66.8581
LeftForeArm  22.5412 4.21783 -11.9072
LeftHand  -0.246645 0.021 5.37786
RightShoulder  9.6178 17.2817 40.0907
RightArm  9.08653 23.3928 46.2515
RightForeArm  -15.0343 23.8864 5.84633
RightHand  -0.24729 -0.0210522 -5.37781
LeftUpLeg  -12.6622 13.0523 11.1716
LeftLeg  7.70864 1.98906 -2.57084
LeftFoot  1.39452 1.03234 -9.31259
LeftToes  5.09284e-011 3.02203e-011 3.83118e-011
299
root  0.107345 39.8827 12.8435 -172.744 -2.73312 -179.703
RightUpLeg  -12.3908 -4.32203 -7.27501
RightLeg  9.42073 4.85876 -1.38448
RightFoot  -2.11438 -0.605508 7.31387
RightToes  -1.33073e-015 0 -3.6325e-017
Spine  13.4999 0.329001 4.11279
Spine1  11.7598 -0.327822 3.68815
HEad  7.48111 -7.52005 2.21444
LeftShoulder1  7.35217 -16.5547 -30.6009
LeftArm  8.47014 -33.7862 -68.1469
LeftForeArm  28.3932 7.24598 -10.3953
LeftHand  -0.246645 0.021 5.37786
RightShoulder  9.67338 17.3344 40.2319
RightArm  7.60497 24.1174 47.1483
RightForeArm  -11.8538 22.7655 5.63944
RightHand  -0.24729 -0.0210522 -5.37781
LeftUpLeg  -12.6609 12.9266 10.9926
LeftLeg  7.67856 1.54857 -2.67985
LeftFoot  1.43963 1.01884 -9.16185
LeftToes  5.09284e-011 3.02203e-011 3.83118e-011
300
root  0.0206919 39.8877 12.8435 -172.817 -3.41676 -179.807
RightUpLeg  -12.0274 -4.6686 -7.52828
RightLeg  9.2138 4.55497 -1.45439
RightFoot  -2.09514 -0.624111 7.53107
RightToes  -1.33073e-015 0 -3.6325e-017
Spine  13.6301 0.43028 3.81369
Spine1  11.5479 -0.482088 4.51681
HEad  7.57349 -7.83501 2.1866
LeftShoulder1  7.29249 -16.5688 -30.2729
LeftArm  6.99617 -35.8944 -69.658
LeftForeArm  36.5514 7.20532 -8.82184
LeftHand  -0.246645 0.021 5.37786
RightShoulder  9.736 17.394 40.3894
RightArm  5.02698 24.6622 47.6691
RightForeArm  -9.59139 21.3581 5.77803
RightHand  -0.24729 -0.0210522 -5.37781
LeftUpLeg  -12.7911 12.6819 10.6958
LeftLeg  7.71292 1.11835 -2.7111
LeftFoot  1.43664 1.00098 -9.00507
LeftToes  5.09284e-011 3.02203e-011 3.83118e-011
301
root  -0.060915 39.8893 12.8387 -172.829 -4.32382 -179.955
RightUpLeg  -11.706 -5.11301 -7.85159
RightLeg  9.11865 4.11921 -1.46548
RightFoot  -2.1687 -0.63636 7.72308
RightToes  -1.33073e-015 0 -3.6325e-017
Spine  13.6879 0.509771 3.69888
Spine1  11.3047 -0.61065 5.24232
HEad  7.69092 -8.30408 2.26648
LeftShoulder1  7.19434 -16.556 -29.7995
LeftArm  5.49417 -37.5847 -71.0597
LeftForeArm  45.154 6.69905 -7.10973
LeftHand  -0.246645 0.021 5.37786
RightShoulder  9.78302 17.4329 40.5197
RightArm  2.99229 25.3159 47.8136
RightForeArm  -6.7814 20.0033 6.07814
RightHand  -0.24729 -0.0210522 -5.37781
LeftUpLeg  -13.0568 12.371 10.3092
LeftLeg  7.78834 0.571684 -2.71314
LeftFoot  1.4331 0.979485 -8.81591
LeftToes  5.09284e-011 3.02203e-011 3.83118e-011
